<svg xmlns="http://www.w3.org/2000/svg" viewBox="0 0 410 404" width="32" height="32" fill="none">
  <defs>
    <linearGradient id="g" x1="-15.116" y1="14.006" x2="375.889" y2="312.245" gradientUnits="userSpaceOnUse">
      <stop stop-color="#41D1FF"/>
      <stop offset="1" stop-color="#BD34FE"/>
    </linearGradient>
    <linearGradient id="g2" x1="194.651" y1="8.818" x2="236.076" y2="292.989" gradientUnits="userSpaceOnUse">
      <stop stop-color="#FFEA83"/>
      <stop offset="0.083" stop-color="#FFDD35"/>
      <stop offset="1" stop-color="#FFA800"/>
    </linearGradient>
  </defs>
  <path d="M399.641 59.525L215.33 388.608c-7.6 13.32-26.86 13.35-34.49.06L10.438 59.523c-8.23-14.55 4.11-32.3 20.12-29.25l179.31 33.56a19.9 19.9 0 0 0 7.1 0l162.47-33.19c16.06-3.28 28.48 13.83 20.34 28.38Z" fill="url(#g)"/>
  <path d="M292.84 60.48L164.94 86.15c-2.75.55-4.77 2.87-4.99 5.66l-7.54 96.25a6 6 0 0 0 7.05 6.46l34.78-6.59c3.43-.65 6.59 2.2 6.03 5.64l-10.32 63.39c-.6 3.66 3.11 6.61 6.58 5.4l21.52-7.91c3.47-1.27 7.21 1.37 6.84 5.08l-15.45 150.2c-.79 7.7 9.99 10.87 14.08 4.17l1.33-2.2L339 105.97c1.94-3.26-.92-7.24-4.59-6.52l-35.22 6.75c-3.53.68-6.56-2.8-5.58-6.25l14.06-49.2c.98-3.45-2.05-6.93-5.58-6.25Z" fill="url(#g2)"/>
</svg>

